<?xml version="1.0" standalone="no"?>
<!DOCTYPE svg PUBLIC "-//W3C//DTD SVG 20010904//EN"
 "http://www.w3.org/TR/2001/REC-SVG-20010904/DTD/svg10.dtd">
<svg version="1.0" xmlns="http://www.w3.org/2000/svg"
 width="529.000000pt" height="430.000000pt" viewBox="0 0 29.000000 430.000000"
 preserveAspectRatio="xMidYMid meet">

<g transform="translate(0.000000,430.000000) scale(0.100000,-0.100000)"
fill="rgba(0,0,0,0.2)" stroke="none">
<path d="M2450 4172 c-41 -2 -79 -7 -84 -12 -5 -5 -10 -35 -11 -67 -3 -68 -25
-93 -86 -93 -62 0 -82 29 -91 135 l-3 30 -119 3 c-78 2 -123 -1 -132 -9 -11
-9 -14 -50 -14 -196 0 -182 0 -184 25 -208 l24 -25 676 0 677 0 29 29 29 30
-2 188 -3 188 -129 3 c-146 3 -146 3 -146 -68 0 -55 -19 -85 -64 -100 -28 -9
-40 -8 -64 4 -36 18 -42 33 -42 96 0 63 -16 72 -113 68 l-72 -3 -6 -50 c-8
-72 -23 -101 -58 -113 -36 -13 -69 -6 -98 21 -19 17 -23 31 -23 78 0 34 -5 60
-12 65 -7 5 -47 8 -88 6z"/>
<path d="M5009 4158 c-5 -9 -9 -61 -9 -115 -1 -102 -7 -120 -47 -141 -34 -18
-69 -14 -98 11 -25 21 -27 29 -31 131 -3 60 -7 113 -10 117 -8 14 -150 11
-161 -3 -6 -7 -13 -60 -16 -118 -6 -98 -8 -107 -33 -129 -22 -18 -35 -22 -66
-18 -64 9 -68 17 -68 134 0 140 -2 143 -98 143 -42 0 -83 -4 -90 -9 -10 -6
-13 -49 -10 -194 3 -180 4 -186 27 -211 l24 -26 403 0 402 0 31 26 31 26 0
183 c0 134 -3 185 -12 193 -7 6 -46 12 -87 14 -60 2 -75 0 -82 -14z"/>
<path d="M91 4156 c-9 -10 -11 -65 -9 -190 3 -159 5 -177 24 -203 l21 -28 410
-3 409 -2 30 31 29 30 0 180 c0 149 -3 181 -15 189 -23 15 -157 12 -167 -2 -4
-7 -8 -60 -9 -118 -2 -100 -3 -105 -29 -127 -36 -31 -88 -31 -120 2 -23 22
-25 31 -25 128 0 67 -4 107 -12 115 -7 7 -41 12 -84 12 -101 0 -104 -4 -104
-139 0 -123 -4 -131 -73 -138 -27 -2 -49 2 -61 11 -22 18 -35 81 -35 176 -1
37 -6 71 -13 78 -18 18 -152 16 -167 -2z"/>
<path d="M277 3552 c-16 -17 -17 -90 -17 -893 0 -775 2 -877 16 -897 15 -22
18 -22 268 -22 202 0 256 3 265 14 8 10 10 256 9 912 l-3 899 -261 3 c-243 2
-262 1 -277 -16z m332 -198 c19 -24 21 -40 21 -145 0 -109 -2 -120 -22 -139
-23 -21 -70 -26 -111 -11 -33 13 -47 58 -47 146 0 138 20 175 95 175 35 0 48
-5 64 -26z m0 -520 c18 -24 21 -41 21 -141 0 -108 -1 -115 -25 -138 -26 -27
-80 -34 -115 -15 -25 14 -40 70 -40 155 0 83 14 141 38 154 9 6 36 11 59 11
33 0 46 -5 62 -26z m-1 -514 c20 -19 22 -30 22 -141 0 -114 -1 -121 -25 -144
-34 -35 -93 -34 -126 1 -22 24 -24 33 -24 138 0 143 12 166 83 166 35 0 54 -6
70 -20z"/>
<path d="M2108 3559 c-17 -9 -18 -63 -18 -904 0 -874 0 -895 19 -905 24 -12
131 -13 150 -1 11 7 13 65 12 307 -2 384 5 418 108 527 99 104 255 134 402 78
66 -25 146 -97 181 -162 23 -43 23 -51 28 -392 4 -294 7 -349 20 -357 26 -16
146 -12 164 6 14 14 16 109 16 903 0 676 -3 890 -12 899 -16 16 -1044 17
-1070 1z m321 -205 c18 -23 21 -41 21 -139 0 -98 -3 -116 -21 -139 -22 -28
-65 -35 -113 -16 -35 13 -49 73 -44 184 4 82 6 91 32 112 39 34 98 33 125 -2z
m541 6 c18 -18 20 -33 20 -149 0 -123 -1 -131 -22 -145 -31 -22 -94 -20 -116
2 -38 38 -35 270 3 298 28 21 91 18 115 -6z"/>
<path d="M4472 3558 c-9 -9 -12 -224 -12 -905 0 -872 0 -893 19 -903 12 -6
113 -10 260 -10 204 0 242 2 255 16 14 14 16 109 16 903 0 676 -3 890 -12 899
-17 17 -509 17 -526 0z m319 -197 c22 -18 24 -27 27 -140 4 -119 3 -121 -23
-147 -23 -23 -33 -26 -71 -21 -72 8 -74 12 -74 158 0 116 2 131 20 149 26 26
89 27 121 1z m-2 -520 c25 -25 34 -87 29 -192 -3 -70 -6 -83 -27 -100 -28 -23
-88 -25 -119 -3 -21 14 -22 22 -22 149 0 127 1 135 22 149 32 22 94 20 117 -3z
m8 -524 c15 -19 19 -45 21 -129 4 -111 -8 -158 -43 -172 -34 -13 -79 -6 -102
16 -22 20 -23 29 -23 146 0 150 6 162 81 162 38 0 51 -5 66 -23z"/>
<path d="M1007 2783 c-4 -3 -7 -234 -7 -513 0 -380 3 -509 12 -518 9 -9 121
-12 444 -12 380 0 434 2 448 16 14 14 16 73 16 505 0 319 -4 497 -10 510 -9
16 -22 19 -94 19 -95 0 -96 -1 -96 -81 0 -64 -23 -89 -83 -89 -60 0 -87 26
-87 86 0 77 -9 84 -101 84 -76 0 -80 -1 -89 -26 -6 -14 -10 -45 -10 -68 0 -55
-22 -76 -78 -76 -58 0 -82 26 -82 86 0 77 -9 84 -99 84 -43 0 -81 -3 -84 -7z
m517 -375 c12 -17 16 -50 16 -143 0 -137 -6 -152 -62 -161 -93 -15 -118 19
-118 161 0 96 13 147 42 158 7 3 34 6 60 6 38 1 50 -3 62 -21z"/>
<path d="M3366 2774 c-3 -9 -6 -238 -6 -509 0 -435 2 -495 16 -509 14 -14 68
-16 444 -16 376 0 430 2 444 16 14 14 16 73 16 505 0 319 -4 497 -10 510 -9
16 -22 19 -90 19 -49 0 -82 -4 -86 -12 -4 -6 -9 -36 -10 -66 -4 -72 -22 -92
-85 -92 -42 0 -51 4 -66 27 -10 15 -20 52 -23 83 l-5 55 -80 3 c-95 3 -105 -5
-105 -83 0 -65 -19 -85 -81 -85 -64 1 -80 17 -86 92 -3 35 -11 66 -17 70 -6 4
-45 8 -87 8 -61 0 -78 -3 -83 -16z m514 -364 c18 -18 20 -33 20 -147 0 -104
-3 -130 -17 -145 -23 -26 -92 -24 -122 3 -22 20 -22 27 -19 150 3 114 5 130
23 143 29 22 91 20 115 -4z"/>
<path d="M2544 2501 c-18 -11 -45 -36 -60 -57 l-29 -37 -3 -313 c-2 -214 0
-319 8 -333 10 -20 20 -21 170 -21 131 0 161 3 174 16 14 13 16 56 16 319 0
190 -4 314 -11 332 -13 34 -55 80 -91 99 -40 21 -136 18 -174 -5z"/>
<path d="M270 1561 c-5 -11 -10 -43 -10 -71 0 -59 13 -90 38 -90 31 -1 87 -26
144 -63 30 -20 67 -37 82 -37 15 0 53 17 84 37 129 84 238 85 359 2 81 -56 83
-56 178 6 60 39 112 55 181 55 60 0 106 -17 176 -66 61 -42 88 -43 147 -5 91
59 138 74 213 69 47 -4 84 -14 119 -32 28 -14 57 -26 64 -26 25 0 147 202 138
228 -4 9 -203 12 -953 12 -928 0 -950 0 -960 -19z"/>
<path d="M2396 1548 c-49 -66 -127 -201 -124 -217 3 -14 42 -16 359 -19 296
-2 358 0 368 12 9 11 -1 34 -50 112 -97 158 -67 144 -315 144 l-213 0 -25 -32z"/>
<path d="M3090 1560 c0 -37 117 -213 145 -218 9 -2 29 5 44 15 44 33 99 46
172 41 58 -5 79 -12 137 -47 78 -47 127 -53 172 -21 126 90 253 92 380 7 30
-21 67 -37 81 -37 15 0 49 15 76 34 130 89 272 86 385 -9 43 -37 84 -33 153
14 31 21 78 45 104 52 25 6 52 16 59 22 16 12 16 139 0 155 -9 9 -236 12 -960
12 -939 0 -948 0 -948 -20z"/>
<path d="M2138 1138 c-8 -7 -68 -92 -133 -188 -65 -96 -151 -222 -190 -280
-357 -523 -369 -543 -349 -557 15 -11 221 -13 1178 -11 l1161 3 3 22 c2 15
-39 85 -131 220 -224 331 -360 532 -453 668 l-89 130 -491 3 c-382 2 -493 -1
-506 -10z"/>
</g>
</svg>
